<?xml version="1.0" encoding="utf-8"?>
<!-- Generator: Adobe Illustrator 24.2.1, SVG Export Plug-In . SVG Version: 6.00 Build 0)  -->
<svg version="1.1" id="Layer_1" xmlns="http://www.w3.org/2000/svg" xmlns:xlink="http://www.w3.org/1999/xlink" x="0px" y="0px"
	 viewBox="0 0 162 44" style="enable-background:new 0 0 162 44;" xml:space="preserve">
<style type="text/css">
	.st0{fill:#BEBEBE;}
</style>
<path class="st0" d="M49.6,13.7h1.7c1-0.2,2.1,0,3.1,0.4c1.2,0.7,2.1,1.9,2.4,3.3c0.3,0.7,0.3,0.7,0.9,0.5h0.5v-5.7h-16v1h0.7
	c0.6,0,1.1,0.3,1.5,0.7c0.6,1,0.7,2.1,0.7,7.8c0,6.1-0.1,7.6-0.7,8.4c-0.3,0.4-0.7,0.6-1.2,0.7c-0.9,0.2-0.9,0.1-0.9,0.6
	c-0.1,0.1-0.1,0.3,0,0.4h10.1c0.1-0.3,0.1-0.6,0-0.9c-0.2-0.1-0.5-0.1-0.7-0.1c-0.3,0-0.5-0.1-0.8-0.2c-0.8-0.6-1.2-1.5-1.1-2.4
	c-0.1-1-0.2-2.8-0.2-4.3v-1.2H50c0.7,0,1.5,0.1,2.2,0.2c0.7,0.4,1.2,1.2,1.3,2l0.1,0.5h0.9v-6.6h-0.8l-0.1,0.6
	c-0.1,0.8-0.6,1.6-1.4,2c-0.4,0.1-0.7,0.1-1.1,0.1h-1.7v-1.6c0-1.7,0.1-5.2,0.1-5.7L49.6,13.7z M119.5,25.6c-0.7-1.1-1.8-2-3.1-2.3
	c-1-0.3-1.9-0.8-2.7-1.5c-0.4-0.3-0.5-0.8-0.4-1.3c0-0.5,0.2-0.9,0.5-1.3c0.5-0.5,1.1-0.7,1.8-0.5c1.3,0.4,2.3,1.5,2.6,2.8
	c0.2,0.7,0.3,0.7,0.7,0.5l0.3-0.1v-3.7l-0.2-0.1c-1.5-0.5-3-0.7-4.6-0.6c-1.3,0-2.6,0.6-3.6,1.5c-0.9,0.8-1.4,2-1.3,3.2
	c0,0.9,0.4,1.8,1,2.4c0.7,0.7,1.6,1.2,2.5,1.5c2.3,0.9,3,1.5,3,2.6c0,0.9-0.6,1.7-1.5,2c-0.5,0.1-1.1,0.1-1.6,0
	c-1.4-0.5-2.4-1.7-2.8-3.2l-0.2-0.5h-0.3c-0.1,0-0.3,0-0.4,0.1h-0.1v4.2h0.3c1,0.3,2.1,0.6,3.1,0.7h1.5c0.6,0,1.3,0,1.9-0.2
	c1.6-0.3,3-1.4,3.5-3c0.2-0.4,0.3-0.9,0.3-1.3C119.9,26.8,119.8,26.2,119.5,25.6z M105.5,17.8c-1.8-0.8-3.9-0.7-5.6,0.1
	c-1.7,0.8-2.9,2.3-3.4,4.1c-0.3,1-0.5,2-0.4,3c0,0.6,0,1.1,0.1,1.6c0.5,2.7,2.6,4.9,5.4,5.3c0.9,0.1,1.7,0.1,2.6,0
	c0.9-0.2,1.8-0.5,2.5-1c0.6-0.4,1.2-0.9,1.6-1.5c-0.1-0.2-0.2-0.4-0.4-0.5c-0.2,0.1-0.3,0.1-0.5,0.3c-0.7,0.5-1.6,0.7-2.5,0.7
	c-1.2,0.1-2.4-0.4-3.2-1.3c-0.3-0.3-0.6-0.6-0.8-1c-0.5-0.9-0.7-1.9-0.7-3v-0.6h8.3v-0.3c0-0.3,0-0.6,0-0.9
	C108.5,20.9,107.3,18.9,105.5,17.8z M101.3,23h-1v-0.9c0.3-2.3,1.2-3.6,2.2-3.6c1,0,1.5,1.3,1.7,3.8V23h-0.9L101.3,23z M79.8,17.4
	c-0.5,0-1,0.1-1.5,0.3c-1,0.5-1.8,1.3-2.3,2.3l-0.2,0.4v-3h-0.1c-0.2,0-5.7,1.1-5.9,1.2c-0.2,0.1-0.1,0.1-0.1,0.4s0,0.3,0.1,0.3
	l0.6,0.1c0.3,0,0.6,0.2,0.8,0.4c0.4,0.5,0.4,1.4,0.4,5c0.1,1.7,0,3.3-0.2,5c-0.1,0.5-0.5,0.9-1,1L70,30.9h-0.2v0.4
	c-0.1,0.1-0.1,0.3,0,0.4h8.3v-0.4c0-0.1,0-0.3,0-0.4c-0.5,0-1-0.1-1.5-0.2c-0.5-0.3-0.9-0.9-0.8-1.5c-0.1-0.9-0.2-3.4-0.1-5.3
	c0-1.9,0-2.1,0.2-2.2c0.5-0.4,1.1-0.6,1.7-0.6c0.6,0,1.2,0.2,1.7,0.4c0.2,0.1,0.4,0.2,0.6,0.2c0,0,1.5-3.6,1.5-3.8
	C81,17.5,80.4,17.3,79.8,17.4z M69.8,23.6c-0.1-2.2-1.3-4.1-3.1-5.3c-2.2-1.2-4.8-1.2-7-0.2c-1.6,0.8-2.7,2.2-3.3,3.9
	c-0.6,1.9-0.6,3.9,0,5.7c0.3,1,0.8,2,1.6,2.7c0.9,0.9,2.1,1.5,3.4,1.7c0.8,0.1,1.7,0.1,2.5,0c0.3,0,0.6-0.1,0.9-0.2
	c2.5-0.7,4.3-2.8,4.8-5.3C69.8,25.6,69.8,24.6,69.8,23.6z M63.5,31.1c-1.5,0.4-2.6-1-3-4c-0.1-1.6-0.1-3.2,0-4.8
	c0.3-2.4,1.1-3.7,2.2-3.7c0.5,0,1,0.2,1.3,0.6c1,1,1.5,3,1.5,6c0.1,1.7-0.1,3.4-0.8,5C64.5,30.5,64,30.8,63.5,31.1
	C63.5,31,63.5,31.1,63.5,31.1z M90.4,17.7c-0.4-0.1-0.8-0.1-1.3,0c-0.8,0-1.6,0.2-2.3,0.5l-0.5,0.2v-3.2c0.1-1.1,0.1-2.2,0-3.3
	c-0.2,0-5.9,1.1-6,1.1c0,0.1,0,0.2,0,0.3c0,0.3,0,0.3,0.7,0.4c0.2,0,0.4,0.1,0.5,0.2c0.3,0.3,0.5,0.6,0.6,1c0.2,1.1,0.2,2.3,0.2,3.4
	v13.1l0.4,0.1c0.6,0.1,2.3,0.4,2.8,0.5c1.1,0.1,2.2,0.1,3.3,0c2.5-0.3,4.6-1.9,5.6-4.2c0.3-0.7,0.5-1.5,0.6-2.3
	c0.1-1.1,0.1-2.1-0.1-3.2C94.6,20.1,92.8,18.2,90.4,17.7C90.4,17.7,90.4,17.7,90.4,17.7z M86.5,30.8c0-0.2-0.1-6.7-0.1-9.3v-2
	l0.4-0.1c0.3,0,0.6,0,0.9,0c0.3,0,0.6,0,0.9,0.2c1.1,0.8,1.8,2,1.9,3.4c0.1,1.1,0.1,2.2,0,3.3c-0.1,1.6-0.7,3.1-1.7,4.3
	c-0.3,0.3-0.7,0.5-1.1,0.5c-0.3,0.1-0.6,0.1-0.9,0C86.6,31,86.6,31,86.5,30.8L86.5,30.8L86.5,30.8z"/>
</svg>
