<?xml version="1.0" encoding="utf-8"?>
<!-- Generator: Adobe Illustrator 24.2.1, SVG Export Plug-In . SVG Version: 6.00 Build 0)  -->
<svg version="1.1" id="fox-news-channel" xmlns="http://www.w3.org/2000/svg" xmlns:xlink="http://www.w3.org/1999/xlink" x="0px"
	 y="0px" viewBox="0 0 162 44" style="enable-background:new 0 0 162 44;" xml:space="preserve">
<style type="text/css">
	.st0{fill:#BEBEBE;}
</style>
<g>
	<path id="fox-news" class="st0" d="M78.7,19.6h4.2v-3.9h-4.2v-1.9h5.1l-0.3-3.9h-9.1v14.4h4.3V19.6z M96.5,24.3h4.6l2.1-3.5
		l2.1,3.5h4.7l-4.5-7.5l4.1-6.9H105l-1.8,3l-1.8-3h-4.7l4.2,6.9L96.5,24.3z M91.2,24.4c4.1,0.1,7.4-3.2,7.5-7.3
		C98.5,13,95,9.8,90.9,10c-3.9,0.2-7,3.3-7.2,7.2C83.7,21.3,87.1,24.5,91.2,24.4L91.2,24.4z M89.9,14c0-0.7,0.6-1.3,1.3-1.3
		c0.7,0,1.3,0.6,1.4,1.3v6.1c-0.1,0.7-0.7,1.3-1.4,1.2c-0.7,0-1.2-0.6-1.2-1.2V14z M79.7,35.1h4.4v-2.9h-4.4v-2H85v-3.1h-8.7v13.5
		h8.7v-3.2h-5.4V35.1z M98.5,27.1l-1.7,7.7l-1.6-7.7h-2.9l-1.6,7.8l-1.6-7.8h-3.4l3.1,13.5h3.1l1.5-7.7l1.6,7.7h3.1l3.1-13.5H98.5z
		 M109.8,33.2c-0.9-0.8-1.9-1-3.1-1.4c-1.4-0.4-2.1-0.4-2.1-1.2c0.1-0.6,0.6-1,1.2-1c0,0,0,0,0,0c0.9-0.1,1.7,0.5,1.9,1.4l2.9-1
		c-0.5-2.1-2.4-3.4-4.6-3.4c-3.1,0-5,1.9-5,4.4c0,2.2,1.3,3.3,3.8,4c1.5,0.5,2.3,0.4,2.3,1.4c0,0.5-0.5,0.9-1.3,0.9
		c-1.1,0.1-2-0.6-2.2-1.6l-3.2,0.7c0.6,2.6,2.5,4.1,5.4,4.1c1.4,0,2.8-0.5,3.8-1.6c0.7-0.8,1.1-1.9,1.1-3
		C111,35,110.6,34,109.8,33.2L109.8,33.2L109.8,33.2z M72.2,33.9l-4-6.7h-3.9v13.4h3.4v-7.9l4.6,7.8h3.2V27.2h-3.3L72.2,33.9z"/>
	<g>
		<polygon class="st0" points="74.3,3 55.2,42.9 55.4,42.9 63.4,30.5 63.4,26.2 65.9,26.2 73.6,13.6 73.6,9 76.8,9 80.6,3 		"/>
		<polygon class="st0" points="63.2,3 55.1,42.9 55.1,42.9 69.1,3 		"/>
	</g>
</g>
</svg>
