<?xml version="1.0" encoding="utf-8"?>
<!-- Generator: Adobe Illustrator 24.2.1, SVG Export Plug-In . SVG Version: 6.00 Build 0)  -->
<svg version="1.1"
	 id="svg3696" inkscape:version="0.92.0 r15299" sodipodi:docname="logo_nyt_v1_edited.svg" xmlns:cc="http://creativecommons.org/ns#" xmlns:dc="http://purl.org/dc/elements/1.1/" xmlns:inkscape="http://www.inkscape.org/namespaces/inkscape" xmlns:rdf="http://www.w3.org/1999/02/22-rdf-syntax-ns#" xmlns:sodipodi="http://sodipodi.sourceforge.net/DTD/sodipodi-0.dtd" xmlns:svg="http://www.w3.org/2000/svg"
	 xmlns="http://www.w3.org/2000/svg" xmlns:xlink="http://www.w3.org/1999/xlink" x="0px" y="0px" viewBox="0 0 162 44"
	 style="enable-background:new 0 0 162 44;" xml:space="preserve">
<style type="text/css">
	.st0{fill:#BEBEBE;}
</style>
<path id="g" inkscape:connector-curvature="0" class="st0" d="M37.4,16.6c0-1.1-1-1.4-1.9-1.4v0.2c0.5,0,0.9,0.2,0.9,0.5
	c0,0.2-0.2,0.5-0.7,0.5c-0.4,0-1.2-0.2-1.8-0.5c-0.7-0.2-1.4-0.5-1.9-0.5c-1.1,0-1.9,0.8-1.9,1.8c0,0.8,0.6,1.1,0.9,1.2l0.1-0.1
	c-0.2-0.1-0.3-0.2-0.3-0.5c0-0.2,0.2-0.6,0.8-0.6c0.5,0,1.2,0.2,2,0.5c0.8,0.2,1.6,0.4,2,0.5V20l-0.8,0.7v0.1l0.8,0.7v2.4
	c-0.4,0.3-0.9,0.3-1.4,0.3c-0.8,0-1.6-0.2-2.2-0.9l2.3-1.1v-3.8l-2.8,1.2c0.3-0.7,0.9-1.2,1.5-1.6l0-0.1c-1.7,0.5-3.2,2-3.2,3.9
	c0,2.3,1.8,3.9,3.9,3.9c2.3,0,3.7-1.8,3.7-3.6l-0.1,0c-0.3,0.7-0.8,1.4-1.4,1.8v-2.3l0.9-0.7l0-0.1L35.7,20v-1.7
	C36.5,18.2,37.4,17.7,37.4,16.6L37.4,16.6z M32.5,22.8l-0.7,0.3c-0.4-0.5-0.6-1.2-0.6-2.1c0-0.4,0-0.9,0.2-1.2l1.2-0.5L32.5,22.8z
	 M38.5,24l-0.7,0.6l0.1,0.1l0.4-0.3l1.2,1.1l1.7-1.1L41,24.4l-0.4,0.3L40,24.1v-3.8l0.5-0.3l1,0.8v3.4c0,2.1-0.5,2.5-1.4,2.8V27
	c1.6,0.1,3-0.5,3-3.2v-3.6l0.5-0.4l-0.1-0.1L43,20.1l-1.4-1.2L40,20.1v-4.6h-0.1l-2,1.3v0.1c0.2,0.1,0.5,0.2,0.5,0.9L38.5,24z
	 M48.7,23.4l-1.4,1.1l-1.4-1.1v-0.7l2.6-1.8v-0.1l-1.3-2l-2.9,1.5v3.7l-0.6,0.4l0.1,0.1l0.5-0.4l1.9,1.4l2.5-2L48.7,23.4z
	 M45.9,22.5v-2.7l0.1-0.1l1.2,1.9L45.9,22.5z M59.3,16.1c0-0.2,0-0.3-0.1-0.5h-0.1c-0.2,0.5-0.4,0.7-0.9,0.7c-0.5,0-0.8-0.3-1-0.5
	c0,0-1.6,1.8-1.6,1.8l0.1,0.1l0.5-0.5c0.3,0.3,0.6,0.5,1.4,0.5v4.6l-3.3-5.7c-0.3-0.4-0.7-1.1-1.5-1.1c-0.9,0-1.7,0.8-1.6,2h0.2
	c0-0.3,0.2-0.7,0.6-0.7c0.3,0,0.6,0.3,0.7,0.6v1.8c-1,0-1.7,0.5-1.7,1.3c0,0.4,0.2,1.1,0.9,1.3l0-0.1c-0.1-0.1-0.2-0.2-0.2-0.4
	c0-0.3,0.2-0.5,0.6-0.5c0.1,0,0.3,0,0.3,0v2.4c-1.2,0-2.1,0.7-2.1,1.8c0,1.1,0.9,1.6,1.9,1.5l0-0.1c-0.6-0.1-0.9-0.3-0.9-0.7
	c0-0.5,0.3-0.7,0.8-0.7c0.5,0,0.8,0.3,1.1,0.6l1.6-1.8l-0.1-0.1l-0.4,0.5c-0.6-0.5-1-0.7-1.7-0.8v-5.6l4.5,7.8h0.3v-7.8
	C58.5,17.7,59.3,17.1,59.3,16.1L59.3,16.1z M63.4,23.4L62,24.5l-1.4-1.1v-0.7l2.6-1.8v-0.1l-1.3-2L59,20.4v3.7l-0.6,0.4l0.1,0.1
	l0.5-0.4l1.9,1.4l2.5-2L63.4,23.4L63.4,23.4z M60.6,22.5v-2.7l0.1-0.1l1.2,1.9L60.6,22.5z M72.5,19.5l-0.4,0.3L71,18.9L69.8,20
	l0.5,0.5v4.2l-1.4-0.9v-3.4l0.4-0.3l-1.3-1.2L66.9,20l0.5,0.5v4l-0.2,0.1L66,23.7v-3.4c0-0.8-0.4-1-0.9-1.3
	c-0.4-0.3-0.6-0.5-0.6-0.8c0-0.3,0.3-0.5,0.5-0.6c0,0,0-0.1,0-0.1c-0.4,0-1.6,0.5-1.6,1.5c0,0.6,0.3,0.8,0.5,1.1
	c0.3,0.3,0.5,0.5,0.5,1v3.2l-0.6,0.5l0.1,0.1l0.5-0.4l1.5,1.2l1.4-0.9l1.5,0.9l3-1.7v-3.7l0.7-0.5L72.5,19.5L72.5,19.5z M82.8,16.4
	l-0.6,0.5L81,15.8l-1.8,1.4v-1.3H79l0,9c-0.2,0-0.7-0.1-1.1-0.2l0-7.6c0-0.6-0.4-1.3-1.4-1.3c-1,0-1.7,0.8-1.7,1.6H75
	c0.1-0.3,0.2-0.6,0.6-0.6c0.3,0,0.6,0.2,0.6,1v2.2c-1,0-1.6,0.6-1.6,1.3c0,0.4,0.2,1.1,0.9,1.1l0-0.1c-0.2-0.1-0.3-0.3-0.3-0.4
	c0-0.3,0.3-0.5,0.7-0.5h0.2v3.5c-0.8,0.3-1.2,0.9-1.2,1.6c0,0.9,0.7,1.6,1.8,1.6c0.8,0,1.4-0.1,2.1-0.3c0.6-0.1,1.3-0.3,1.6-0.3
	c0.4,0,0.6,0.2,0.6,0.5c0,0.4-0.2,0.5-0.4,0.6l0,0.1c0.9-0.2,1.4-0.7,1.4-1.5c0-0.8-0.8-1.4-1.7-1.4c-0.5,0-1.4,0.1-2.1,0.3
	c-0.8,0.2-1.6,0.3-1.8,0.3c-0.4,0-0.9-0.2-0.9-0.7c0-0.5,0.4-0.8,1.3-0.8c0.5,0,1.1,0.1,1.7,0.2c0.7,0.1,1.3,0.3,1.9,0.3
	c0.8,0,1.5-0.3,1.5-1.5v-6.9l0.7-0.6L82.8,16.4z M80.5,19.8c-0.1,0.2-0.4,0.3-0.7,0.3c-0.3,0-0.5-0.2-0.7-0.3v-2.5l0.6-0.4l0.8,0.7
	V19.8z M80.5,21.5c-0.1-0.1-0.4-0.3-0.7-0.3c-0.3,0-0.6,0.2-0.7,0.3V20c0.1,0.1,0.4,0.3,0.7,0.3s0.5-0.2,0.7-0.3V21.5z M80.5,24.1
	c0,0.5-0.3,0.9-0.9,0.9c-0.1,0-0.4,0-0.5,0v-3.3c0.1-0.1,0.4-0.3,0.7-0.3c0.3,0,0.5,0.2,0.7,0.3V24.1z M88.2,20.1l-1.8-1.3l-2.7,1.6
	v3.6l-0.6,0.5l0.1,0.1l0.4-0.4l1.8,1.3l2.8-1.7L88.2,20.1z M85.2,23.7v-4l1.4,1v4L85.2,23.7z M93.5,19c0,0-0.1,0-0.1,0
	c-0.1,0.1-0.3,0.2-0.5,0.2c-0.2,0-0.5-0.1-0.6-0.3h-0.1l-0.9,1l-1-1l-1.6,1.1l0.1,0.1l0.4-0.3l0.6,0.6V24L89,24.6l0.1,0.1l0.4-0.3
	l1.3,1.1l1.7-1.2l-0.1-0.1l-0.5,0.3L91.3,24v-3.9c0.3,0.3,0.6,0.6,1,0.6C93,20.7,93.4,19.9,93.5,19L93.5,19z M100.2,24.4l-1.9,1.2
	l-2.6-3.9l1.8-2.8l0.1,0c0.2,0.2,0.6,0.4,0.9,0.4c0.4,0,0.7-0.2,0.8-0.4c0,0,0.1,0,0.1,0c-0.1,1.1-0.8,1.8-1.4,1.8
	c-0.6,0-0.9-0.3-1.2-0.5l-0.2,0.3l2.8,4.1l0.6-0.3L100.2,24.4z M94.1,24l-0.7,0.6l0.1,0.1l0.4-0.3l1.2,1.1l1.7-1.1l-0.1-0.1
	l-0.4,0.3l-0.5-0.5v-8.6h-0.1l-2,1.3v0.1c0.2,0.1,0.6,0.2,0.6,0.8L94.1,24z M109.5,16.6c0-1.1-1-1.4-1.9-1.4v0.2
	c0.5,0,0.9,0.2,0.9,0.5c0,0.2-0.2,0.5-0.7,0.5c-0.4,0-1.2-0.2-1.8-0.5c-0.7-0.2-1.4-0.5-1.9-0.5c-1.1,0-1.9,0.8-1.9,1.8
	c0,0.8,0.6,1.1,0.9,1.2l0.1-0.1c-0.2-0.1-0.3-0.2-0.3-0.5c0-0.2,0.2-0.6,0.8-0.6c0.5,0,1.2,0.2,2,0.5c0.8,0.2,1.6,0.4,2,0.5V20
	l-0.8,0.7v0.1l0.8,0.7v2.4c-0.4,0.3-0.9,0.3-1.4,0.3c-0.8,0-1.6-0.2-2.2-0.9l2.3-1.1v-3.8l-2.8,1.2c0.3-0.7,0.9-1.2,1.5-1.6l0-0.1
	c-1.7,0.5-3.2,2-3.2,3.9c0,2.3,1.8,3.9,3.9,3.9c2.3,0,3.7-1.8,3.7-3.6l-0.1,0c-0.3,0.7-0.8,1.4-1.4,1.8v-2.3l0.9-0.7l0-0.1l-0.9-0.7
	v-1.7C108.6,18.2,109.5,17.7,109.5,16.6L109.5,16.6z M104.6,22.8l-0.7,0.3c-0.4-0.5-0.6-1.2-0.6-2.1c0-0.4,0-0.9,0.2-1.2l1.2-0.5
	L104.6,22.8L104.6,22.8z M111.4,16.1L111.4,16.1l-1.2,0.9v0.1l0.9,1.1h0.1l1.1-0.9l0-0.1L111.4,16.1L111.4,16.1z M113.1,24.4
	l-0.4,0.3l-0.5-0.5v-3.9l0.5-0.4l-0.1-0.1l-0.4,0.3l-1-1.2l-1.6,1.1l0.1,0.1l0.4-0.3l0.5,0.6v3.6l-0.7,0.5l0.1,0.1l0.4-0.3l1.2,1.1
	l1.7-1.1L113.1,24.4z M122.4,24.3l-0.4,0.3l-0.6-0.5v-3.8l0.6-0.4l-0.1-0.1l-0.5,0.4l-1.3-1.2l-1.6,1.2l-1.3-1.2l-1.6,1.2l-1-1.2
	L113,20l0.1,0.1l0.4-0.3l0.5,0.6v3.6l-0.4,0.4l1.3,1.1l1.2-1.1l-0.5-0.5v-3.8l0.5-0.3l0.9,0.8v3.4l-0.4,0.4l1.3,1.1l1.2-1.1
	l-0.5-0.5v-3.8l0.4-0.3l0.9,0.8V24l-0.4,0.4l1.3,1.2l1.7-1.2L122.4,24.3z M127.2,23.4l-1.4,1.1l-1.4-1.1v-0.7l2.6-1.8v-0.1l-1.3-2
	l-2.9,1.5v3.8l1.9,1.4l2.5-2L127.2,23.4z M124.4,22.5v-2.7l0.1-0.1l1.2,1.9L124.4,22.5z M132.3,22l-1.1-0.8c0.7-0.6,1-1.5,1-2
	c0-0.1,0-0.2,0-0.4h-0.1c-0.1,0.3-0.3,0.5-0.8,0.5c-0.4,0-0.7-0.2-1-0.5l-2.5,1.4v2l0.9,0.7c-0.9,0.8-1.1,1.4-1.1,1.8
	c0,0.6,0.3,1,0.7,1.1l0.1-0.1c-0.1-0.1-0.2-0.2-0.2-0.4c0-0.2,0.2-0.5,0.7-0.5c0.5,0,0.9,0.4,1,0.6c0,0,2.4-1.4,2.4-1.4L132.3,22z
	 M131.7,20.3c-0.4,0.7-1.2,1.3-1.7,1.7l-0.6-0.5v-2c0.2,0.5,0.8,1,1.5,1C131.2,20.5,131.4,20.5,131.7,20.3z M130.7,24.8
	c-0.3-0.6-0.9-1.1-1.6-1.1c-0.2,0-0.6,0-1,0.3c0.3-0.4,1-1.2,2-1.8l0.7,0.5V24.8z"/>
</svg>
