<?xml version="1.0" encoding="utf-8"?>
<!-- Generator: Adobe Illustrator 24.2.1, SVG Export Plug-In . SVG Version: 6.00 Build 0)  -->
<svg version="1.1" id="svg2697" xmlns:svg="http://www.w3.org/2000/svg"
	 xmlns="http://www.w3.org/2000/svg" xmlns:xlink="http://www.w3.org/1999/xlink" x="0px" y="0px" viewBox="0 0 162 44"
	 style="enable-background:new 0 0 162 44;" xml:space="preserve">
<style type="text/css">
	.st0{fill:#BEBEBE;}
	.st1{fill-rule:evenodd;clip-rule:evenodd;fill:#BEBEBE;}
</style>
<g>
	<path id="path10227" class="st0" d="M21.3,9.8c-0.1,1.3-1.6,3.2-3.4,3.3c-1.8,0.1-3.7-1.7-5.6-1.6c-1,0-2.2,0.5-2.2,1.7
		c0,1,0.8,1.5,2.1,1.5c1.1-0.1,1.3-0.2,2.2-0.7c-0.4,0.7-1.3,1.2-2.2,1.3c-1.5,0-2.2-1-2.4-2.1c-0.1-1.3,1.1-3.7,3.8-3.7
		c2.4,0,4.3,1.5,5.6,1.5C20.1,10.9,20.6,10.4,21.3,9.8"/>
	<path id="path10229" class="st0" d="M18.7,15.3c0.6,0,1.1,0.5,1.1,1.2c0,0.6-0.5,1.1-1.1,1.1c-0.6,0-1.4-0.6-0.8-1.6
		c0,0-0.9,0.4-0.6,1.4c0.9,0.6,2.1,1.7,1.8,3.4c-0.3,1.9-3.1,2.4-3.5,4c-0.5-1.2-1.2-1.8-2.2-1.7c-1.7,0-2.6,1.3-2.6,2.3
		c0.1,1.5,1.1,2.2,3.2,2.1c2-0.1,3.2-1,4-2.3c-0.3,1-1.3,3.2-4.2,3.2c-2.7,0-3.6-2-3.6-3.4c0-2.7,2.1-3.7,3.6-3.7
		c1.5,0,2.2,0.7,3.1,1.6c0,0,0.5-1.1-0.1-2.1c-1-1.8-2.8-1.4-3.2-3.6c-0.3-1.8,2.2-3.8,2.9-4c-0.6,0.6-1.5,1.3-0.9,2.8
		c0.3,0.7,1.3,1.2,1.3,1.2C16.9,16.6,17.4,15.3,18.7,15.3"/>
	<path id="path10231" class="st0" d="M20.7,16.4l1.4-1.9c0,0,1.1,0.2,1.7,1.5l1.1-1.5c0,0,0.8,1.3,2,0.1c0,0-0.5,2.1-1.9,2.2
		c-0.5,0-1.1-0.4-1.1-0.4l0,5.9c0,0-0.1,0.7,0.9,0.9c0,0-1,1-1.6,1.9c-0.8-1-1.8-1.8-1.8-1.8s0.4-0.2,0.5-0.8l0-5.7
		C21.8,16.7,21.7,15.8,20.7,16.4"/>
	<path id="path10233" class="st1" d="M30.6,14.5c0,0-1.5,1.3-2.9,1.7c-1,0.4-1,1.4-1,1.4l0,5.4c0,0-0.2,1,1.9,2.2c0,0,0.6-1.1,1.5-2
		c0,0,0.1,1.4,1.6,1.9c0,0,0.4-1.1,1.3-1.8c-0.4-0.2-1-0.4-1-1.2l0-5.2c0,0,0-0.2,0.4-0.6L30.6,14.5z M29.2,15.9
		c-0.4,0.2-0.6,0.6-0.6,1V22c0,0.5,0.3,1,0.7,1c0.7,0,0.7-0.7,0.7-0.7l0-5.3C30.1,17,30.1,16.5,29.2,15.9"/>
	<path id="path10235" class="st0" d="M35.4,14.5c-0.7,1-1.6,2-1.6,2s1,0.1,0.9,0.8l0,5c0,0.8-0.5,0.8-0.5,0.8s0.9,0.8,1.5,1.9
		c0,0,0.7-1.2,1.4-1.9c0,0-0.5,0-0.5-0.8l0-5c0-0.3,0.4-0.8,0.7-0.8c0.7,0,0.8,0.5,0.8,1v5.1c0,0.7,0,1.4,1.3,2.3
		c0,0,0.7-1.1,1.6-1.9c0,0-0.9,0.1-0.9-1l0-5.2c0,0,0-0.7,0.2-0.9c0,0-1-0.7-1.7-1.7l-2,2.2C36.4,14.8,35.4,14.5,35.4,14.5"/>
	<path id="path10237" class="st1" d="M46.2,10.8c-0.2-0.2-0.5,0.1-0.5,0.1l-1,1.2l0-0.7c0-0.5,0.2-1.1,0.7-1.5c0,0-1.5-0.1-2,1.8
		c0,0-0.6-0.4-1-0.3c0.1,0.2,0.1,0.6,0.1,0.6v2.8l-0.5,0v0.9l0.5,0l0,6.7c0,0.6-0.5,0.8-0.5,0.8s1,0.7,1.6,2c0,0,0.6-1.3,2-2
		c0,0-1-0.2-1-1l0-6.6l0.9,0v-0.9l-0.9,0l0-0.2l1.2-1.1C47.3,12.3,46.6,11,46.2,10.8z M44.8,12.5v2C44.8,14.5,46.1,13.4,44.8,12.5"
		/>
	<path id="path10239" class="st0" d="M51,9.6c0,0-0.9,2.6-3.4,2.7l0,2.4H47v1l0.6,0l0,13.2H48v-2.5c0,0,0-1.1,0.6-1.2l0.6-0.1
		c0,0,0.5,0,0.5-0.5l0-8.8l1,0v-1l-1,0l0-3c0,0,2.5,2.1,3.4-1.9C53.2,9.8,52.1,11.4,51,9.6"/>
	<path id="path10241" class="st0" d="M53.2,14.5c-0.7,1.1-1.6,1.7-1.6,1.7s0.7,0.1,0.7,0.9l0,5.6c0,0.6-0.4,0.7-0.4,0.7
		c0.7,0.6,1.7,1.8,1.7,1.8s1.5-1.8,2.3-2.3c-0.3,1.3,1.4,2.3,1.4,2.3l1.3-1.9c0,0-0.7-0.2-0.7-1l0-5.4c0-0.6,0.4-0.9,0.4-0.9
		c-1-0.6-1.4-1.7-1.4-1.7c-0.5,1.2-1.5,1.8-1.5,1.8s0.5,0.3,0.5,0.7l0,5.2c0,0.4-0.3,1-0.8,1c-0.5,0-0.7-0.6-0.7-0.8l0-5.7
		C54.3,15.3,53.2,14.5,53.2,14.5"/>
	<path id="path10243" class="st0" d="M59.7,16.4l1.4-1.9c0,0,0.9,0.3,1.4,1.6l0.8-1.6c0,0,0.6,1.1,1.4,0.1c0,0,0.1,2.5-1.3,2.5
		c-0.6,0-1-0.5-1-0.5l0,5.6c0,0-0.1,1.1,1.1,1c0,0-1.2,0.8-1.7,1.9c-0.8-1-1.9-1.8-1.9-1.8s0.5-0.1,0.6-0.8l0-5.3
		C60.6,17.4,60.6,16.6,59.7,16.4"/>
	<path id="path10245" class="st0" d="M65.9,14.8l-0.4,0l0,1l0.4,0l0,6.9c0,0.5-0.3,0.7-0.3,0.7s0.8,0.6,1.5,1.6
		c0.8-1.1,1.9-1.7,1.9-1.7S68,23.2,68,22.5l0-6.7l1.1,0l0-1l-1.1,0l0-3.1l-2,0.7L65.9,14.8"/>
	<path id="path10247" class="st1" d="M73.9,14.4c-0.7,0.8-1.3,0.8-1.8,1.1c-0.8,0.4-2,0.7-2,2.3l0,4.6c0,2,1.6,2.1,2.6,2.6
		c0.7-1.3,2.1-2.3,2.1-2.3l-0.2-0.1c0,0-0.5,0.6-1.2,0.5c-1.3,0-1.3-1.4-1.3-1.4v-2c0,0,1.7-0.7,2.5-1.6c0.4-0.4,0.5-0.7,0.5-1.2
		C75.2,16,74.4,15.3,73.9,14.4z M72.3,15.8c0,0-0.3,0.1-0.2,1.3l0,2.6C72.1,19.6,74.8,18.6,72.3,15.8"/>
	<path id="path10249" class="st0" d="M75.6,16.1c0.6-0.5,1.5-1.8,1.5-1.8s0.8,0.3,1.3,1.6c0.5-0.6,0.9-1.6,0.9-1.6s0.9,1.5,1.8,0
		c0,0-0.2,2.5-1.6,2.6c-0.6,0.1-1.1-0.7-1.1-0.7v5.8c0,0.9,1.1,1.1,1.1,1.1s-1.2,0.6-1.8,1.8c-0.8-1-1.7-1.8-1.7-1.8
		s0.3-0.1,0.4-0.7l0-5.5C76.5,16.1,75.6,16.1,75.6,16.1"/>
	<path id="path10251" class="st1" d="M87.5,12.8c0,0-0.6,0.4-1.2,0.4c-0.5,0-0.9-0.4-0.9-0.9c0-0.6,0.7-1,1.3-1
		c1.3,0,1.6,1.8,1.6,1.8l-3,8.7c-1.5,0-2.8,1.5-2.8,3.3c0,1.9,1.6,3.2,3.6,3.2c3.1,0,4.1-3,4.1-3c-0.6,0.6-1.2,2.1-4.1,2.1
		c-1.5,0-3.1-0.6-3.1-1.9c0-0.7,0.7-1.4,1.7-1.4c1.1,0,1.8,0.8,1.8,0.8l2.2-2.4l-0.2-0.2l-0.5,0.5c-0.8-0.9-2.1-1-2.1-1l0.9-2.7l3,0
		l1,4.4c0.3,1.1,0.9,0.8,2,1.6l1.1-2.3c0,0-0.9,0.2-1.2-0.8l-2.4-10.3c0,0-0.5-2.5-2.9-2.5c-1.4,0-2.7,1-2.7,2.4
		c0,0.9,0.8,1.8,1.7,1.8C87.1,13.5,87.5,12.8,87.5,12.8z M88.5,14L87,18.5l2.6,0L88.5,14"/>
	<path id="path10253" class="st0" d="M94.8,22.4c0,0.5-0.6,0.7-0.6,0.7s0.9,0.9,1.8,2.1c0.7-1.3,1.8-1.9,1.8-1.9s-0.8-0.1-0.8-0.7
		V10.4l-2.1,1V22.4"/>
	<path id="path10255" class="st0" d="M99.2,22.4c0,0.5-0.4,0.8-0.4,0.8s0.9,0.9,1.6,2c0.7-1.4,1.8-1.9,1.8-1.9s-0.9,0-0.9-0.7V10.2
		l-2,1.2V22.4"/>
	<path id="path10257" class="st1" d="M107.5,14.3c-2.3,1.7-4,1.3-4,2.9l0,5.7c0,1,0.8,1.6,1.7,2.2l1.6-2l0,1.1
		c0,1.3,0.9,1.2,0.9,2.4c0,0.9-0.7,1.3-1.5,1.3c-1.3,0-1.6-0.7-1.6-0.7s0,0.1,0.3,0.1c0.6,0,1-0.4,1-1c0-0.6-0.5-1-1-1
		c-0.6,0-1,0.5-1,1c0,0.8,0.5,1.9,2.4,1.9c2,0,3.3-1.5,3.3-2.6c0-0.9-0.8-1.1-0.8-2.2l-0.1-7c0-0.4,0.3-0.8,0.3-0.8
		C108.2,15.1,107.5,14.3,107.5,14.3z M106.9,16.6l-1-1c0,0-0.3,0.2-0.3,1l0,5.6c0,0.6,0.2,0.9,0.7,0.8c0.5,0,0.6-0.3,0.6-0.9
		L106.9,16.6"/>
	<path id="path10259" class="st1" d="M115.1,14.3c-0.5,0.4-1.6,1-2.2,1.2c-1.9,0.6-1.9,0.9-1.9,2.3l0,4.7c0,2.1,1.6,1.8,2.7,2.6
		c0.2-1.1,1.7-2.3,1.7-2.3l-0.1-0.1c0,0-0.4,0.3-1.1,0.3c-1.3,0-1.2-1.2-1.2-1.2V20c0,0,1.5-0.8,2.5-1.8c0.4-0.4,0.5-0.7,0.5-1.3
		C116.1,16,115.5,15.7,115.1,14.3z M113.3,15.6c0,0-0.3,0.3-0.3,1.4l0,2.7C113.1,19.8,115.6,18.9,113.3,15.6"/>
	<path id="path10261" class="st0" d="M118.4,14.3l-1.6,1.9c0,0,1,0.1,1,0.7l0,5.5c0,0.7-0.3,0.9-0.3,0.9s0.8,0.7,1.4,1.8
		c0.5-1,1.4-1.9,1.4-1.9s-0.4-0.4-0.4-0.9l0-5c0.1-0.5,0.4-0.7,0.7-0.7c0.4,0,0.6,0.3,0.7,0.6l0,5.1c0,0.5-0.3,0.7-0.3,0.7
		s0.8,0.9,1.3,2c0.6-1.3,1.5-2,1.5-2s-0.5-0.4-0.5-1.1l0-5c0.1-0.4,0.3-0.6,0.6-0.7c0.3-0.1,0.6,0.2,0.7,0.5l0,6c0,1,0.8,1.5,1.7,2
		c0.4-1.1,1.4-2,1.4-2s-1.1,0.1-1.1-0.9l0-5.6c0-0.5,0.4-0.7,0.4-0.7c-1-0.5-1.9-1.4-1.9-1.4l-1.9,2.3c0.1-1.2-1.3-2.2-1.3-2.2
		l-2,2.4C119.6,14.7,118.4,14.3,118.4,14.3"/>
	<path id="path10263" class="st1" d="M132.5,14.3c-2.9,2.2-3.7,1.9-3.7,3l0,5.8c0,1.3,1.1,1.3,2.1,2c0.5-0.9,1.4-1.7,2.3-2.3
		l-0.1-0.1c0,0-0.5,0.4-1.1,0.4c-1.4,0-1.2-1.2-1.2-1.2l0-1.9c0,0,1.1-0.6,2.1-1.5c0.4-0.4,0.7-0.9,0.7-1.5
		C133.6,15.9,133,15.7,132.5,14.3z M130.7,15.7c0,0-0.1,0.2-0.1,1.3l0,2.7C131,19.5,133,18.5,130.7,15.7"/>
	<path id="path10265" class="st1" d="M151.2,14.2c-1.7,1.8-3.9,1.6-3.9,3.4l0,5.5c0,1,1,1.2,2,2c0.8-1.2,1.9-1.8,2.7-2.4l-0.1-0.1
		c0,0-0.8,0.6-1.5,0.6c-1.4,0-1.2-1.3-1.2-1.3v-2c0,0,0.9-0.4,2.1-1.3c0.4-0.3,0.8-0.8,0.9-1.3C152.3,16.1,151.8,16,151.2,14.2z
		 M149.5,15.7c0,0-0.2,0.2-0.2,1.4l0,2.6C150.4,19.1,151.1,17.1,149.5,15.7"/>
	<path id="path10267" class="st0" d="M140.2,14.4l-1.4,1.8c0,0,1,0.1,1,0.8l0,5.5c0,0.3-0.4,0.6-0.4,0.6s0.9,0.9,1.2,1.9
		c0.7-1,1.6-1.9,1.6-1.9s-0.5-0.3-0.5-0.8v-5c0.1-0.4,0.4-0.7,0.8-0.7c0.3,0,0.7,0.3,0.7,0.6l0,5.4c0,1.7,1.5,2.3,1.5,2.3l1.3-1.9
		c0,0-0.8,0-0.9-0.6l0-5.8c0.1-0.5,0.3-0.8,0.3-0.8c-1-0.4-1.7-1.3-1.7-1.3l-2,2.2C141.7,14.8,140.2,14.4,140.2,14.4"/>
	<path id="path10269" class="st0" d="M136.1,14.4c-0.5,0.8-1.7,1.7-1.7,1.7s0.8,0.1,0.8,0.8v5.6c0,0.5-0.5,0.8-0.5,0.8
		s0.8,0.9,1.3,1.8c0.6-1,1.5-1.8,1.5-1.8s-0.5-0.3-0.4-0.8l0-5.7c0-0.5,0.4-0.8,0.4-0.8C136.7,15.4,136.1,14.4,136.1,14.4"/>
	<path id="path10271" class="st0" d="M135,11.3c0-0.6,0.5-1.1,1.1-1.1c0.6,0,1.1,0.5,1.1,1.1s-0.5,1.1-1.1,1.1
		C135.5,12.4,135,11.9,135,11.3"/>
	<path id="path10301" class="st0" d="M34.4,31l-0.1,0.9h0.1c0.1-0.6,0.2-0.7,0.8-0.7h1.2l-2.4,3.3v0.1h3.1l0.2-1h-0.1
		c-0.2,0.6-0.3,0.7-0.9,0.7h-1.5l2.4-3.4H34.4z M41.1,31h-2.9v0.1c0.4,0,0.5,0.1,0.5,0.4v2.6c0,0.3-0.1,0.5-0.5,0.5v0.1h2.9l0.3-0.9
		h-0.1c-0.2,0.5-0.5,0.7-0.9,0.7h-0.9c-0.2,0-0.2-0.1-0.2-0.3v-1.3h0.9c0.4,0,0.5,0.2,0.5,0.5h0.1v-1.3h-0.1c0,0.3-0.1,0.5-0.5,0.5
		h-0.9v-1.4h1.1c0.3,0,0.5,0.2,0.6,0.6h0.1L41.1,31z M42.3,31.1c0.4,0,0.5,0.1,0.5,0.5v2.5c0,0.4-0.1,0.5-0.5,0.5v0.1h1.7v-0.1
		c-0.4,0-0.5-0.1-0.5-0.5v-2.5c0-0.4,0.2-0.5,0.5-0.5V31L42.3,31.1L42.3,31.1z M46,31.3v2.8c0,0.3-0.1,0.5-0.5,0.5v0.1h1.6v-0.1
		c-0.4,0-0.5-0.1-0.5-0.4v-2.9h0.6c0.4,0,0.6,0.2,0.6,0.6h0.1l0-0.8h-3.2l0,0.8h0.1c0-0.4,0.2-0.6,0.6-0.6H46z M48.4,31.1
		c0.5,0,0.5,0.1,0.5,0.6v1.7c0,0.7,0.4,1.3,1.5,1.3c0.9,0,1.4-0.6,1.4-1.3v-1.8c0-0.3,0.1-0.5,0.6-0.5V31h-1.3v0.1
		c0.4,0,0.5,0.1,0.5,0.4v1.8c0,0.8-0.4,1.2-1.2,1.2c-0.6,0-1-0.4-1-1v-2c0-0.4,0.1-0.5,0.5-0.5V31L48.4,31.1L48.4,31.1z M57.3,31H56
		v0.1h0.1c0.3,0,0.4,0.1,0.4,0.4v2.1L54.2,31h-1v0.1c0.3,0,0.5,0.1,0.7,0.4v2.5c0,0.3-0.1,0.5-0.5,0.4v0.1h1.3v-0.1
		c-0.4,0-0.5-0.1-0.5-0.5v-2.3l2.6,2.9h0.1v-3c0-0.5,0-0.5,0.4-0.5L57.3,31L57.3,31z M61.6,31L61.6,31c-0.1,0.2-0.2,0.2-0.3,0.2
		c-0.1,0-0.5-0.2-1.1-0.2c-1.2,0-2.1,0.9-2.1,2c0,0.8,0.7,1.8,2.1,1.8c0.6,0,0.9-0.1,1.4-0.4v-1c0-0.4,0.1-0.5,0.5-0.6v-0.1h-1.5
		v0.1c0.4,0,0.5,0.2,0.5,0.4v1c-0.3,0.2-0.5,0.3-0.8,0.3c-0.8,0-1.5-0.7-1.5-1.7c0-1.1,0.7-1.7,1.5-1.7c0.6,0,1.2,0.3,1.3,1h0.1
		L61.6,31z M68.7,31h-3.1v0.1c0.3,0,0.5,0.1,0.5,0.4v2.5c0,0.3-0.1,0.5-0.5,0.5v0.1h1.6v-0.1c-0.4,0-0.5-0.1-0.5-0.4v-1.3h0.9
		c0.3,0,0.5,0.2,0.5,0.5h0.1v-1.2h-0.1c0,0.4-0.2,0.5-0.5,0.5h-0.9v-1.4h1.1c0.5,0,0.8,0.2,0.8,0.6h0.1L68.7,31z M69.5,31.1
		c0.5,0,0.5,0.1,0.5,0.6v1.7c0,0.7,0.4,1.3,1.5,1.3c0.9,0,1.4-0.6,1.4-1.3v-1.8c0-0.3,0.1-0.5,0.6-0.5V31h-1.3v0.1
		c0.4,0,0.5,0.1,0.5,0.4v1.8c0,0.8-0.4,1.2-1.2,1.2c-0.6,0-1-0.4-1-1v-2c0-0.4,0.1-0.5,0.5-0.5V31L69.5,31.1L69.5,31.1z M71,30
		c-0.2,0-0.3,0.1-0.3,0.3s0.1,0.3,0.3,0.3c0.2,0,0.3-0.1,0.3-0.3S71.2,30,71,30z M71.9,30c-0.2,0-0.3,0.1-0.3,0.3s0.1,0.3,0.3,0.3
		s0.3-0.1,0.3-0.3S72.1,30,71.9,30z M76.4,32.9c0.6-0.2,0.9-0.5,0.9-0.9c0-0.5-0.5-0.9-1.1-0.9h-1.8v0.1c0.4,0,0.5,0.2,0.5,0.4v2.6
		c0,0.2-0.1,0.4-0.5,0.4v0.1h1.6v-0.1c-0.4,0-0.5-0.2-0.5-0.4v-1.1h0.3l1.4,1.7h0.9v-0.1c-0.3,0-0.5-0.2-0.8-0.5L76.4,32.9z
		 M75.4,31.3c0.2-0.1,0.3-0.1,0.4-0.1c0.5,0,0.8,0.3,0.8,0.8c0,0.5-0.4,0.8-1.1,0.8h-0.1V31.3z M81.2,31.1c0.4,0,0.5,0.1,0.5,0.4
		v2.5c0,0.3-0.1,0.5-0.5,0.5v0.1H83c1.2,0,2.1-0.8,2.1-1.8c0-0.8-0.6-1.8-1.9-1.8L81.2,31.1L81.2,31.1z M82.3,31.3
		c0.2-0.1,0.4-0.1,0.6-0.1c0.9,0,1.6,0.7,1.6,1.6c0,1-0.6,1.6-1.6,1.6c-0.2,0-0.4,0-0.6-0.1V31.3z M88.9,31h-2.9v0.1
		c0.4,0,0.5,0.1,0.5,0.4v2.6c0,0.3-0.1,0.5-0.5,0.5v0.1H89l0.3-0.9h-0.1c-0.2,0.5-0.5,0.7-0.9,0.7h-0.9c-0.2,0-0.2-0.1-0.2-0.3v-1.3
		H88c0.4,0,0.5,0.2,0.5,0.5h0.1v-1.3h-0.1c0,0.3-0.1,0.5-0.5,0.5h-0.9v-1.4h1.1c0.3,0,0.5,0.2,0.6,0.6H89L88.9,31z M90,31.1
		c0.5,0,0.5,0.1,0.5,0.6v1.7c0,0.7,0.4,1.3,1.5,1.3c0.9,0,1.4-0.6,1.4-1.3v-1.8c0-0.3,0.1-0.5,0.6-0.5V31h-1.3v0.1
		c0.4,0,0.5,0.1,0.5,0.4v1.8c0,0.8-0.4,1.2-1.2,1.2c-0.6,0-1-0.4-1-1v-2c0-0.4,0.1-0.5,0.5-0.5V31L90,31.1L90,31.1z M96,31.3v2.8
		c0,0.3-0.1,0.5-0.5,0.5v0.1h1.6v-0.1c-0.4,0-0.5-0.1-0.5-0.4v-2.9h0.6c0.4,0,0.6,0.2,0.6,0.6h0.1l0-0.8h-3.2l0,0.8h0.1
		c0-0.4,0.3-0.6,0.6-0.6H96z M100.9,31L100.9,31c-0.1,0.1-0.2,0.2-0.3,0.2c-0.2,0-0.4-0.2-0.8-0.2c-0.6,0-1,0.4-1,0.9
		c0,0.2,0.1,0.5,0.3,0.7c0.3,0.3,1,0.6,1.4,0.9c0.1,0.1,0.2,0.3,0.2,0.5c0,0.3-0.3,0.6-0.7,0.6c-0.6,0-0.9-0.4-1-1h-0.1v1.2h0.1
		c0.1-0.1,0.1-0.2,0.2-0.2c0.2,0,0.5,0.2,0.9,0.2c0.6,0,1.1-0.4,1.1-1c0-0.2-0.1-0.5-0.3-0.7c-0.3-0.3-1.2-0.7-1.4-1
		c-0.1-0.1-0.2-0.2-0.2-0.4c0-0.3,0.3-0.5,0.6-0.5c0.5,0,0.9,0.4,1,1h0.1V31z M105.4,31L105.4,31c-0.1,0.1-0.2,0.2-0.3,0.2
		c-0.1,0-0.4-0.2-1-0.2c-1.1,0-2,0.9-2,1.9c0,1,0.8,1.8,1.9,1.8c0.7,0,1.2-0.3,1.5-0.9l-0.1-0.1c-0.2,0.3-0.7,0.7-1.3,0.7
		c-0.7,0-1.4-0.5-1.4-1.6c0-1.3,0.6-1.8,1.4-1.8c0.6,0,1.2,0.4,1.3,1h0.1L105.4,31z M107.5,32.8h1.8v1.2c0,0.3-0.1,0.5-0.5,0.5v0.1
		h1.6v-0.1c-0.4,0-0.5-0.1-0.5-0.5v-2.5c0-0.3,0.1-0.5,0.5-0.5V31h-1.6v0.1c0.4,0,0.5,0.1,0.5,0.4v1.1h-1.8v-1.1
		c0-0.3,0.1-0.5,0.5-0.5V31h-1.6v0.1c0.4,0,0.5,0.2,0.5,0.5v2.5c0,0.3-0.1,0.5-0.5,0.5v0.1h1.6v-0.1c-0.4,0-0.5-0.1-0.5-0.5V32.8z
		 M114.5,33.7L114.5,33.7c-0.4,0.6-0.6,0.7-1.1,0.7h-0.7c-0.2,0-0.2-0.1-0.2-0.2v-2.6c0-0.3,0.1-0.5,0.5-0.5V31h-1.6v0.1
		c0.5,0,0.5,0.2,0.5,0.5v2.5c0,0.3-0.1,0.5-0.5,0.5v0.1h2.9L114.5,33.7z M116.9,30.9L116.9,30.9l-1.5,3.2c-0.2,0.4-0.3,0.5-0.5,0.5
		v0.1h1v-0.1c-0.3,0-0.4-0.1-0.4-0.2c0,0,0-0.1,0-0.1l0.3-0.7h1.5l0.3,0.6c0.1,0.1,0.1,0.2,0.1,0.2c0,0.2-0.1,0.3-0.4,0.3h0v0.1h1.5
		v-0.1c-0.2,0-0.4,0-0.5-0.4L116.9,30.9z M116.7,31.8l0.6,1.5H116L116.7,31.8z M123.4,31h-1.3v0.1h0.1c0.3,0,0.4,0.1,0.4,0.4v2.1
		l-2.3-2.7h-1v0.1c0.3,0,0.5,0.1,0.7,0.4v2.5c0,0.3-0.1,0.5-0.5,0.4v0.1h1.3v-0.1c-0.4,0-0.5-0.1-0.5-0.5v-2.3l2.6,2.9h0.1v-3
		c0-0.5,0-0.5,0.4-0.5L123.4,31L123.4,31z M124.3,31.1c0.4,0,0.5,0.1,0.5,0.4v2.5c0,0.3-0.1,0.5-0.5,0.5v0.1h1.8
		c1.2,0,2.1-0.8,2.1-1.8c0-0.8-0.6-1.8-1.9-1.8L124.3,31.1L124.3,31.1z M125.4,31.3c0.2-0.1,0.4-0.1,0.6-0.1c0.9,0,1.6,0.7,1.6,1.6
		c0,1-0.6,1.6-1.6,1.6c-0.2,0-0.4,0-0.6-0.1V31.3z"/>
</g>
</svg>
