<?xml version="1.0" encoding="utf-8"?>
<!-- Generator: Adobe Illustrator 24.2.1, SVG Export Plug-In . SVG Version: 6.00 Build 0)  -->
<svg version="1.1" id="Layer_1" xmlns="http://www.w3.org/2000/svg" xmlns:xlink="http://www.w3.org/1999/xlink" x="0px" y="0px"
	 viewBox="0 0 162 44" style="enable-background:new 0 0 162 44;" xml:space="preserve">
<style type="text/css">
	.st0{fill:#BEBEBE;}
</style>
<path class="st0" d="M115.9,28.4h3.8v-0.3l-0.4-0.1c-0.4-0.1-0.5-0.3-0.5-0.8v-5.1h0.9c0.5,0,0.8,0.1,0.9,1.3l0.1,2.4
	c0.1,2.2,0.7,2.8,1.7,2.8c1.1,0,1.3-0.7,1.3-1.8v-0.4h-0.4v0.3c0,0.7-0.1,1.2-0.4,1.2c-0.2,0-0.3-0.2-0.3-1l-0.1-1.6
	c-0.1-2.2-0.4-3-2.1-3.3c1.6-0.4,2.5-1.6,2.5-3.2c0-2.1-1.7-3.1-3.3-3.1h-6.4v0.3l0.4,0.1c0.7,0.1,0.7,0.5,0.7,2v7.4
	c0,1.7-0.5,2.5-1.5,2.5c-1,0-1.5-0.5-1.5-2.3v-8.8c0-0.5,0.2-0.7,0.6-0.8l0.5-0.1v-0.3h-3.9v0.3l0.4,0.1c0.4,0.1,0.5,0.3,0.5,0.8
	v8.7c0,2,1.1,3,2.9,3c1.7,0,2.6-1.1,2.6-3.1v-8.1c0-1,0.2-1.4,1-1.4c0.7,0,0.9,0.2,0.9,0.8v10.4c0,0.5-0.2,0.7-0.5,0.8l-0.4,0.1
	L115.9,28.4z M141,16.8c0-0.5,0.2-0.7,0.5-0.8l0.5-0.1v-0.4h-3.9v0.3l0.4,0.1c0.4,0.1,0.5,0.3,0.5,0.8v10.5c0,0.5-0.2,0.8-0.8,0.8
	c-0.7,0-0.8-0.2-1-1.3L135,15.5h-0.7l-2.3,10.9c-0.3,1.2-0.4,1.5-0.9,1.6l-0.3,0.1v0.3h2.7v-0.3L133,28c-0.6-0.1-0.7-0.4-0.4-1.8
	l1.3-6.9l1.5,7.4c0.2,1.1,0.2,1.3-0.6,1.4l-0.4,0.1v0.3h9.9v-4.3h-0.4c-0.2,2-0.6,3.8-2.2,3.8H141L141,16.8z M135.2,25v-0.5h-2.5
	l-0.1,0.5H135.2z M124.8,17V26c0,1.3,0,2-0.7,2.1l-0.3,0.1v0.3h2.7v-0.3c-1.2-0.2-1.2-0.6-1.2-2v-8.5l-0.4-0.4l4.6,11.3h0.8V18
	c0-1.5,0-1.9,0.7-2.1l0.3-0.1v-0.3h-2.8v0.3l0.3,0.1c1,0.2,1,0.5,1,2v6.5l0.2-0.1l-3.5-8.8h-2.7v0.3L124,16
	C124.3,16.1,124.4,16.4,124.8,17 M118.7,16h0.7c0.7,0,1.4,0.5,1.4,2.9c0,2.5-0.5,2.7-1.6,2.7h-0.6V16z M106.3,21.9
	c0,5.4-0.4,6.2-1.4,6.2c-1,0-1.4-0.8-1.4-6.1c0-5.2,0.5-5.9,1.4-5.9C105.8,16,106.3,16.7,106.3,21.9 M108.3,22
	c0-3.6-1.1-6.5-3.5-6.5c-2.3,0-3.4,3-3.4,6.5c0,3.6,1.1,6.5,3.4,6.5C107.2,28.5,108.3,25.6,108.3,22 M100.3,16.8
	c0-0.5,0.1-0.7,0.5-0.8l0.4-0.1v-0.3h-3.9v0.3l0.5,0.1c0.4,0.1,0.6,0.2,0.6,0.8v9c0,1.3-0.1,2.3-1,2.3c-0.6,0-1-0.5-1-0.8
	c0.1-0.6,1-0.5,1.1-1.5c0.1-0.7-0.4-1-0.8-1c-0.6-0.1-1.3,0.4-1.3,1.4c0,1.3,0.8,2.4,2.2,2.4c1.6,0,2.8-1,2.8-3.1V16.8z M37.8,16.8
	c0-0.5,0.2-0.7,0.5-0.8l0.5-0.1v-0.4H35v0.3l0.4,0.1c0.4,0.1,0.5,0.3,0.5,0.8v10.5c0,0.5-0.2,0.8-0.8,0.8c-0.7,0-0.8-0.2-1-1.3
	l-2.4-11.2H31l-2.3,10.9c-0.3,1.2-0.4,1.5-0.9,1.6l-0.3,0.1v0.3h2.7v-0.3L29.8,28c-0.6-0.1-0.7-0.4-0.4-1.8l1.3-7l1.5,7.4
	c0.2,1.1,0.2,1.3-0.6,1.4l-0.4,0.1v0.3h9.9v-4.3h-0.4c-0.2,2-0.6,3.8-2.2,3.8h-0.7L37.8,16.8z M89.9,16h0.4c1.2,0,1.6,1.9,1.7,3.8
	h0.4v-4.3h-6.8v4.3h0.4c0.1-2,0.5-3.8,1.7-3.8H88v11.2c0,0.5-0.2,0.7-0.5,0.8L87,28.1v0.3h4v-0.3L90.5,28c-0.4-0.1-0.5-0.2-0.5-0.8
	V16z M81.4,22l0.6,0c0.8,0,1.1,0.3,1.3,2.4h0.4v-5.2h-0.4c-0.2,1.6-0.4,2.3-1.2,2.3l-0.6,0V16h1.3c1.4,0,1.8,1.8,2,3.8H85v-4.3h-6.5
	v0.3l0.4,0.1c0.4,0.1,0.5,0.4,0.5,0.8v10.4c0,0.5-0.2,0.7-0.5,0.8l-0.4,0.1v0.3h6.6v-4.3h-0.4c-0.2,1.9-0.5,3.8-2.2,3.8h-1.3V22z
	 M74.3,22l0.6,0c0.8,0,1.1,0.3,1.3,2.4h0.4v-5.2h-0.4c-0.2,1.6-0.4,2.3-1.2,2.3l-0.6,0V16h1.3c1.4,0,1.8,1.9,2,3.8h0.4v-4.3h-6.6
	v0.3l0.6,0.1c0.4,0.1,0.5,0.4,0.5,0.8v10.4c0,0.5-0.2,0.7-0.5,0.8l-0.4,0.1v0.3h6.6v-4.3h-0.4c-0.2,1.9-0.5,3.8-2.2,3.8h-1.3V22z
	 M66.6,16h0.6c0.7,0,1.4,0.5,1.4,2.9c0,2.5-0.5,2.7-1.6,2.7h-0.4V16z M63.8,28.4h3.8v-0.3L67.2,28c-0.4-0.1-0.5-0.3-0.5-0.8v-5.1
	h0.7c0.5,0,0.8,0.2,0.9,1.3l0.1,2.4c0.1,2.2,0.7,2.8,1.7,2.8c1.1,0,1.3-0.7,1.3-1.8v-0.4H71v0.3c0,0.7-0.1,1.2-0.4,1.2
	c-0.2,0-0.3-0.2-0.3-1l-0.1-1.6c-0.1-2.3-0.4-3-2.1-3.3c1.6-0.4,2.5-1.6,2.5-3.2c0-2.1-1.7-3.1-3.3-3.1h-3.6v0.3l0.4,0.1
	c0.4,0.1,0.5,0.3,0.5,0.8v10.4c0,0.5-0.2,0.7-0.5,0.8l-0.4,0.1V28.4z M60.9,16h0.4c1.2,0,1.6,1.9,1.7,3.8h0.4v-4.3h-6.8v4.3H57
	c0.1-2,0.5-3.8,1.7-3.8h0.4v11.2c0,0.5-0.2,0.7-0.5,0.8L58,28.1v0.3H62v-0.3L61.5,28c-0.5-0.1-0.5-0.5-0.5-0.8V16z M56.6,25.1
	c0-3.8-4.2-4.8-4.2-7.6c0-0.6,0.2-1.5,1.2-1.5c1.3,0,1.9,1.7,2.1,3.9H56v-4.3h-0.2c-0.1,0.4-0.3,0.6-0.5,0.6c-0.4,0-0.7-0.7-1.7-0.7
	c-1.6,0-2.7,1.3-2.7,3.1c0,3.2,4.2,4.5,4.2,7.4c0,1.3-0.6,2.1-1.5,2.1c-1.3,0-2.1-1.5-2.3-3.9H51v4.3h0.2c0.2-0.6,0.4-0.7,0.6-0.7
	c0.4,0,0.7,0.8,1.8,0.8C55.4,28.5,56.6,27.1,56.6,25.1 M44.4,16.8c0-0.5,0.2-0.7,0.5-0.8l0.5-0.1v-0.4h-3.9v0.3l0.4,0.1
	c0.4,0.1,0.5,0.3,0.5,0.8v10.4c0,0.5-0.2,0.7-0.5,0.8l-0.4,0.1v0.3h6.1v-4.3h-0.4c-0.2,2-0.6,3.8-2.2,3.8h-0.7L44.4,16.8z M32,25
	v-0.5h-2.5L29.4,25H32z M21.2,28.5h0.8l1.7-9.2h-0.3l1.9,9.2H26l2.3-10.9c0.2-1.1,0.4-1.5,0.8-1.6l0.4-0.1v-0.3h-2.6v0.3l0.4,0.1
	c0.6,0.1,0.7,0.4,0.4,1.8l-1.5,7.3h0.2l-1.5-7.7c-0.1-0.7-0.2-1.3,0.4-1.4l0.4-0.1v-0.3h-3.6v0.3l0.2,0.1c0.4,0.1,0.4,0.3,0.6,1
	l0.6,2.8l-0.1-1.7l-1.3,6.8h0.2l-1.5-7.5c-0.2-0.8-0.2-1.3,0.4-1.5l0.3-0.1v-0.3h-3.7v0.3l0.4,0.1c0.3,0.1,0.5,0.3,0.7,1.3
	L21.2,28.5z"/>
</svg>
