<?xml version="1.0" encoding="utf-8"?>
<!-- Generator: Adobe Illustrator 24.2.1, SVG Export Plug-In . SVG Version: 6.00 Build 0)  -->
<svg version="1.1" id="svg2" xmlns:svg="http://www.w3.org/2000/svg"
	 xmlns="http://www.w3.org/2000/svg" xmlns:xlink="http://www.w3.org/1999/xlink" x="0px" y="0px" viewBox="0 0 162 44"
	 style="enable-background:new 0 0 162 44;" xml:space="preserve">
<style type="text/css">
	.st0{fill:#BEBEBE;}
</style>
<g>
	<path id="path2384" class="st0" d="M33.8,17h-2.2l0-2.4l-3.3,0.5V17l-1.5,0.2v1.5h1.6l0,6.4c0,0.2,0.4,2.3,2.6,2.2
		c2.6-0.2,2.8-0.4,3-0.6c0,0,0-1.2,0-1.2l-1.4,0c0,0-0.8-0.1-0.9-0.9c0,0,0-5.9,0-5.9l2.2,0L33.8,17L33.8,17z"/>
	<path id="path2396" class="st0" d="M38.6,12.5l-4.5,0.6l0,0.9l1.2,0.5l0,11.1l-1.1,0.4l0,0.9l5.5,0v-0.9l-1.1-0.5l0-6.6
		c0,0,0.6-0.3,1.5-0.3c0.9,0,1.3,0.6,1.3,0.9s0,6,0,6l-1,0.4V27h5.5v-0.9l-1.1-0.5v-6.8c0,0,0-2.1-2.5-2c-1.5,0-2.6,0.5-3.6,1.3
		C38.6,18.1,38.6,12.5,38.6,12.5z"/>
	<path class="st0" d="M55.3,22.3c0.1-2.2-0.1-5.7-4.5-5.5c-4.3,0.2-4.9,3.5-4.9,5.7c0.2,3.5,2,4.8,5.4,4.8c2.7-0.1,3.6-1.5,3.6-1.5
		v-0.9c0,0-1.2,0.4-2.6,0.4c-3.1,0-3.1-2.9-3.1-2.9L55.3,22.3L55.3,22.3z M49.2,21.1c0,0,0-1.4,0.3-2.3c0.2-0.7,0.7-1,1.2-1
		c0.9,0,1.1,0.5,1.2,1.1c0.1,0.9,0.1,2,0.1,2.1L49.2,21.1z"/>
	<path class="st0" d="M63.7,24.8h-4c0,0-0.6-0.1-0.6-0.7c0-0.6,0.4-0.8,0.4-0.8s0.8,0.3,1.7,0.3c0.9,0,4.4-0.4,4.4-3.4
		c0-1.4-1.1-2.1-1.1-2.1l1.9,0.5l0-2l-2.8,0.5c0,0-1.4-0.5-2.5-0.5c-0.7,0-4.2,0.3-4.4,3.4c-0.1,2.2,1.8,3,1.8,3
		c0,0-1.8,1.1-1.8,2.4c0,1.3,1.5,1.7,1.6,1.7c0,0,0,0,0,0c0,0,0,0,0,0c-0.1,0-2.4,0.4-2.4,2c0,1.5,2.5,2.3,5.2,2.3
		c2.7,0,5.6-0.7,5.6-3.9S63.7,24.8,63.7,24.8z M61.2,17.9c1.2,0,1.2,1.3,1.2,1.8v1c0,0,0.2,1.7-1.1,1.7c-1.3,0-1.3-1-1.3-1.7
		c0-0.7,0-1.1,0-1.1S59.9,17.9,61.2,17.9z M61.2,30.3c-1.8,0-2.5-0.7-2.5-1.5c0-0.7,0.4-1,0.4-1l4,0c0,0,0.8,0.1,0.8,0.8
		C63.9,29.7,63,30.3,61.2,30.3z"/>
	<path id="path3188" class="st0" d="M71.2,16.7l-4.5,0.7v0.9l1.1,0.6v5.6c0,0,0.1,2.8,2.8,2.8c2.2,0,3.3-1.5,3.3-1.5v1.5l4.3-0.5
		v-0.8l-1.1-0.6v-8.5l-4.4,0.7v0.8l1.2,0.6v6c0,0-0.3,0.3-1.3,0.3c-1,0.1-1.4-0.8-1.4-0.8L71.2,16.7L71.2,16.7z"/>
	<path id="path3190" class="st0" d="M79.2,17.5c0,0,2.1-0.8,3.9-0.8c1.8,0,4.3,0.6,4.3,2.8s0,6.1,0,6.1l1.1,0.6v0.7
		c0,0-0.8,0.4-1.9,0.4s-2.1-0.6-2.1-1.5c-0.2,0-0.3,1.4-3,1.4c-3.1,0-2.9-2.8-2.9-2.8c0-0.1-0.1-2.1,2.2-2.5
		c2.2-0.4,3.3-0.6,3.3-0.6l0-2c0,0-0.2-1.2-1.2-1.2c-1.1,0-1.1,0-1.1,0l-0.7,2h-1.8L79.2,17.5z M84.1,25.1v-2.7c0,0-2.2-0.2-2.2,1.6
		c0,1.4,0.8,1.5,1.2,1.5C83.5,25.4,83.8,25.3,84.1,25.1z"/>
	<path id="path3195" class="st0" d="M93.1,16.7l-4.4,0.7v0.9l1.1,0.5v6.8l-1,0.5v0.9h5.7v-0.8l-1.4-0.6l0-5.6c0,0,0.9-0.3,1.8-0.3
		c0.9,0,1.3,0.1,1.3,0.1v-2.9c0,0-1.9-0.6-3.2,2C93,18.8,93.1,16.7,93.1,16.7z"/>
	<path id="path3197" class="st0" d="M101.7,13.3v0.9l1.1,0.5v2.4c0,0-0.8-0.4-1.7-0.4c-0.9,0-4.7,0.1-4.8,5.4
		c-0.1,5.2,3.9,5.1,3.9,5.1c0,0,1.9,0.1,2.7-1.1c0,0,0,1,0,1l4.3-0.5v-0.8l-1-0.5l0-12.7L101.7,13.3z M102.8,18.5v6.8
		c0,0-0.4,0.2-1,0.2c-1.1,0-2-0.7-2-3.1c0-2.1,0.3-3.7,1.2-4.1C101.9,17.9,102.7,18.4,102.8,18.5z"/>
	<path id="path3220" class="st0" d="M112.1,14.3c0,1-0.8,1.8-1.8,1.8c-1,0-1.8-0.8-1.8-1.8s0.8-1.8,1.8-1.8
		C111.2,12.5,112.1,13.3,112.1,14.3z M112,16.7l-4.5,0.6v0.9l1.2,0.6v6.8l-1.1,0.5V27h5.5v-0.9l-1-0.5L112,16.7z"/>
	<path id="path3224" class="st0" d="M114,17.5c0,0,2.1-0.8,3.9-0.8c1.8,0,4.3,0.6,4.3,2.8s0,6.1,0,6.1l1.1,0.6v0.7
		c0,0-0.8,0.4-1.9,0.4c-1.1,0-2.1-0.6-2.1-1.5c-0.2,0-0.3,1.4-3,1.4c-3.1,0-2.9-2.8-2.9-2.8c0-0.1-0.1-2.1,2.2-2.5
		c2.2-0.4,3.3-0.6,3.3-0.6l0-2c0,0-0.2-1.2-1.2-1.2c-1.1,0-1.1,0-1.1,0l-0.7,2H114L114,17.5z M118.9,25.1v-2.7c0,0-2.2-0.2-2.2,1.6
		c0,1.4,0.8,1.5,1.2,1.5C118.4,25.4,118.7,25.2,118.9,25.1z"/>
	<path id="path3228" class="st0" d="M127.9,16.7l-4.5,0.7v0.8l1.2,0.6v6.8l-1.1,0.4V27h5.5v-0.9l-1-0.5V19c0,0,0.5-0.3,1.3-0.3
		c0.8,0,1.4,0.4,1.4,1.1s0,5.7,0,5.7l-1.1,0.5l0,0.8h5.6v-0.9l-1.1-0.5v-6.3c0,0,0.1-2.5-2.5-2.5c-2.6,0-3.7,1.4-3.7,1.4L127.9,16.7
		z"/>
</g>
</svg>
