<?xml version="1.0" encoding="utf-8"?>
<!-- Generator: Adobe Illustrator 24.2.1, SVG Export Plug-In . SVG Version: 6.00 Build 0)  -->
<svg version="1.1" id="Google_Play" xmlns="http://www.w3.org/2000/svg" xmlns:xlink="http://www.w3.org/1999/xlink" x="0px"
	 y="0px" viewBox="0 0 218 64" style="enable-background:new 0 0 218 64;" xml:space="preserve">
<style type="text/css">
	.st0{fill:#A6A8AA;}
	.st1{fill:#FFFFFF;}
	.st2{fill:#85C8F2;}
	.st3{fill:url(#SVGID_1_);}
	.st4{fill:url(#SVGID_2_);}
	.st5{fill:url(#SVGID_3_);}
</style>
<g>
	<g>
		<path d="M209.6,63.2H8.4c-4.1,0-7.4-3.3-7.4-7.4V8.2c0-4.1,3.3-7.4,7.4-7.4h201.2c4.1,0,7.4,3.3,7.4,7.4v47.7
			C217,59.9,213.7,63.2,209.6,63.2z"/>
		<path class="st0" d="M209.6,64H8.4c-4.5,0-8.2-3.7-8.2-8.2V8.2C0.2,3.6,3.9,0,8.4,0h201.2c4.5,0,8.2,3.7,8.2,8.2v47.7
			C217.8,60.4,214.1,64,209.6,64z M8.4,1.6c-3.6,0-6.6,2.9-6.6,6.6v47.7c0,3.6,2.9,6.6,6.6,6.6h201.2c3.6,0,6.6-2.9,6.6-6.6V8.2
			c0-3.6-2.9-6.6-6.6-6.6H8.4z"/>
	</g>
	<g>
		<path class="st1" d="M110,35c-3.8,0-6.9,2.9-6.9,6.8c0,3.9,3.1,6.8,6.9,6.8c3.8,0,6.9-2.9,6.9-6.8C116.8,37.9,113.8,35,110,35z
			 M110,46c-2.1,0-3.9-1.7-3.9-4.1c0-2.5,1.8-4.1,3.9-4.1c2.1,0,3.9,1.7,3.9,4.1C113.8,44.3,112,46,110,46z M95,35
			c-3.8,0-6.9,2.9-6.9,6.8c0,3.9,3.1,6.8,6.9,6.8c3.8,0,6.9-2.9,6.9-6.8C101.9,37.9,98.8,35,95,35z M95,46c-2.1,0-3.9-1.7-3.9-4.1
			c0-2.5,1.8-4.1,3.9-4.1c2.1,0,3.9,1.7,3.9,4.1C98.8,44.3,97.1,46,95,46z M77.2,37.1V40h6.9c-0.2,1.6-0.8,2.8-1.6,3.7
			c-1,1-2.6,2.1-5.4,2.1c-4.3,0-7.6-3.4-7.6-7.7s3.3-7.7,7.6-7.7c2.3,0,4,0.9,5.2,2.1l2-2c-1.7-1.7-4-2.9-7.3-2.9
			c-5.9,0-10.8,4.8-10.8,10.6c0,5.9,4.9,10.6,10.8,10.6c3.2,0,5.5-1,7.4-3c1.9-1.9,2.5-4.6,2.5-6.8c0-0.7-0.1-1.3-0.2-1.8H77.2z
			 M150,39.4c-0.6-1.5-2.3-4.4-5.9-4.4c-3.5,0-6.5,2.8-6.5,6.8c0,3.8,2.9,6.8,6.8,6.8c3.1,0,4.9-1.9,5.7-3l-2.3-1.6
			c-0.8,1.1-1.8,1.9-3.4,1.9c-1.5,0-2.6-0.7-3.3-2.1l9.1-3.8L150,39.4z M140.7,41.6c-0.1-2.6,2-4,3.6-4c1.2,0,2.2,0.6,2.5,1.5
			L140.7,41.6z M133.3,48.3h3V28.2h-3V48.3z M128.4,36.5h-0.1c-0.7-0.8-2-1.5-3.6-1.5c-3.4,0-6.6,3-6.6,6.9c0,3.8,3.1,6.8,6.6,6.8
			c1.6,0,2.9-0.7,3.6-1.6h0.1v1c0,2.6-1.4,4-3.7,4c-1.8,0-3-1.3-3.4-2.4l-2.6,1.1c0.8,1.8,2.7,4,6.1,4c3.5,0,6.5-2.1,6.5-7.1V35.4
			h-2.9V36.5z M124.9,46c-2.1,0-3.8-1.7-3.8-4.1c0-2.4,1.7-4.2,3.8-4.2c2,0,3.7,1.8,3.7,4.2C128.6,44.3,127,46,124.9,46z
			 M164.1,28.2h-7.2v20.1h3v-7.6h4.2c3.3,0,6.6-2.4,6.6-6.2S167.4,28.2,164.1,28.2z M164.2,37.9h-4.3V31h4.3c2.2,0,3.5,1.9,3.5,3.4
			C167.7,36,166.4,37.9,164.2,37.9z M182.7,35c-2.2,0-4.4,1-5.4,3.1l2.7,1.1c0.6-1.1,1.6-1.5,2.7-1.5c1.6,0,3.1,0.9,3.2,2.6v0.2
			c-0.5-0.3-1.7-0.8-3.1-0.8c-2.9,0-5.8,1.6-5.8,4.5c0,2.7,2.4,4.4,5,4.4c2,0,3.1-0.9,3.8-2h0.1v1.6h2.9v-7.7
			C188.9,37,186.2,35,182.7,35z M182.4,46c-1,0-2.4-0.5-2.4-1.7c0-1.6,1.7-2.1,3.2-2.1c1.3,0,1.9,0.3,2.7,0.7
			C185.7,44.7,184.1,46,182.4,46z M199.4,35.4l-3.4,8.7h-0.1l-3.6-8.7h-3.2l5.4,12.2l-3.1,6.8h3.1l8.3-19H199.4z M172.4,48.3h3V28.2
			h-3V48.3z"/>
		<g>
			<path class="st2" d="M17.2,12.2c-0.5,0.5-0.7,1.3-0.7,2.3V50c0,1,0.3,1.8,0.7,2.3l0.1,0.1l19.9-19.9v-0.2V32L17.3,12L17.2,12.2z"
				/>
			<linearGradient id="SVGID_1_" gradientUnits="userSpaceOnUse" x1="50.3828" y1="32.1861" x2="11.4972" y2="32.1861">
				<stop  offset="0" style="stop-color:#F6DF33"/>
				<stop  offset="0.1941" style="stop-color:#F0CD33"/>
				<stop  offset="0.5469" style="stop-color:#E8B132"/>
				<stop  offset="0.8279" style="stop-color:#E4A030"/>
				<stop  offset="1" style="stop-color:#E29A2F"/>
			</linearGradient>
			<path class="st3" d="M43.8,39.1l-6.6-6.6v-0.2V32l6.6-6.6l0.1,0.1l7.9,4.5c2.2,1.3,2.2,3.4,0,4.6L44,39L43.8,39.1z"/>
			<linearGradient id="SVGID_2_" gradientUnits="userSpaceOnUse" x1="40.2915" y1="35.8739" x2="3.7179" y2="72.4475">
				<stop  offset="0" style="stop-color:#D04749"/>
				<stop  offset="1" style="stop-color:#AA1E6A"/>
			</linearGradient>
			<path class="st4" d="M44,39l-6.8-6.8l-20,20c0.7,0.8,2,0.9,3.3,0.1L44,39"/>
			<linearGradient id="SVGID_3_" gradientUnits="userSpaceOnUse" x1="3.5549" y1="-8.2394" x2="33.4163" y2="21.622">
				<stop  offset="0" style="stop-color:#5E9D71"/>
				<stop  offset="0.3168" style="stop-color:#72A970"/>
				<stop  offset="0.7398" style="stop-color:#86B96E"/>
				<stop  offset="1" style="stop-color:#8EC06E"/>
			</linearGradient>
			<path class="st5" d="M44,25.4L20.5,12.1c-1.4-0.8-2.6-0.7-3.3,0.1l20,20L44,25.4z"/>
		</g>
	</g>
	<g>
		<path class="st1" d="M74.1,13.3c-0.6-0.5-1.4-0.9-2.3-0.9c-2,0-3.5,1.6-3.5,3.6c0,2,1.5,3.6,3.5,3.6c1.7,0,2.9-1,3-2.6h-2.7V16
			h4.1c0,3.3-1.8,4.9-4.5,4.9c-2.7,0-4.8-2.2-4.8-4.8c0-2.7,2.1-4.9,4.8-4.9c1.2,0,2.4,0.5,3.2,1.2L74.1,13.3z"/>
		<path class="st1" d="M83.7,11.3v1.2h-4.3v3h3.8v1.2h-3.8v2.9h4.5v1.2h-5.7v-9.5H83.7z"/>
		<path class="st1" d="M91.9,11.3v1.2h-2.9v8.3h-1.3v-8.3h-2.9v-1.2H91.9z"/>
		<path class="st1" d="M98.1,11.3v9.5h-1.3v-9.5H98.1z"/>
		<path class="st1" d="M106.8,11.3v1.2h-2.9v8.3h-1.3v-8.3h-2.9v-1.2H106.8z"/>
		<path class="st1" d="M115.8,11.2c2.7,0,4.8,2.2,4.8,4.9c0,2.7-2.1,4.8-4.8,4.8c-2.7,0-4.8-2.2-4.8-4.8
			C111,13.4,113.1,11.2,115.8,11.2z M115.8,19.7c2,0,3.5-1.6,3.5-3.6c0-2-1.5-3.6-3.5-3.6c-2,0-3.5,1.6-3.5,3.6
			C112.3,18.1,113.8,19.7,115.8,19.7z"/>
		<path class="st1" d="M128.2,20.8l-4.3-7.1v7.1h-1.3v-9.5h1.3l4.3,7.1v-7.1h1.3v9.5H128.2z"/>
	</g>
</g>
</svg>
